<svg width="14" height="14" xmlns="http://www.w3.org/2000/svg">
    <path id="svg_1" fill-rule="nonzero" fill="#595959" d="m10.333,3.667l-2,0c-0.366,0 -0.666,0.3 -0.666,0.666c0,0.367 0.3,0.667 0.666,0.667l2,0c1.1,0 2,0.9 2,2s-0.9,2 -2,2l-2,0c-0.366,0 -0.666,0.3 -0.666,0.667c0,0.366 0.3,0.666 0.666,0.666l2,0a3.335,3.335 0 0 0 0,-6.666zm-6,3.333c0,0.367 0.3,0.667 0.667,0.667l4,0c0.367,0 0.667,-0.3 0.667,-0.667c0,-0.367 -0.3,-0.667 -0.667,-0.667l-4,0c-0.367,0 -0.667,0.3 -0.667,0.667zm1.334,2l-2,0c-1.1,0 -2,-0.9 -2,-2s0.9,-2 2,-2l2,0c0.366,0 0.666,-0.3 0.666,-0.667c0,-0.366 -0.3,-0.666 -0.666,-0.666l-2,0a3.335,3.335 0 0 0 0,6.666l2,0c0.366,0 0.666,-0.3 0.666,-0.666c0,-0.367 -0.3,-0.667 -0.666,-0.667z"></path>
</svg>
